<svg width="351" height="236" viewBox="0 0 351 236" fill="none" xmlns="http://www.w3.org/2000/svg">
<path fill-rule="evenodd" clip-rule="evenodd" d="M271.556 156.367C259.316 156.781 248.906 146.627 248.966 134.34C249.025 122.151 258.036 113.001 270.247 112.726C282.701 112.444 292.11 120.941 292.69 133.005C293.306 145.736 284.073 155.948 271.556 156.367ZM204.51 82.8984L201.945 82.8084C157.111 83.2579 112.278 83.0943 65.4796 83.0943C71.6867 66.6619 77.1701 49.5124 84.8326 33.4061C87.2065 28.4253 95.4774 23.3724 101.124 23.2809C150.825 22.5004 200.553 22.4964 250.25 23.2848C255.917 23.3764 264.203 28.4253 266.585 33.4173C274.264 49.5247 279.759 66.6774 287.008 85.8381L259.595 84.863C257.261 72.8539 245.725 63.7221 231.816 63.7221C218.678 63.7221 207.663 71.8772 204.51 82.8984V82.8984ZM215.365 175.301H136.323C128.203 175.301 124.688 168.922 124.688 161.073C124.688 153.212 128.203 146.842 136.323 146.842H215.365C223.485 146.842 226.992 153.212 226.992 161.073C226.992 168.922 223.485 175.301 215.365 175.301ZM80.5421 156.398C68.9152 156.403 58.9146 146.706 58.5686 135.088C58.1909 122.486 67.8097 112.659 80.4944 112.667C92.857 112.679 102.003 121.478 102.297 133.64C102.599 146.297 92.9564 156.379 80.5421 156.398ZM343.059 60.3472C329.078 53.9357 315.511 58.8648 307.037 74.3734C300.877 57.7061 295.259 41.7635 289.099 26.0323C282.363 8.81508 270.204 0.186582 250.938 0.413543C202.633 0.978955 154.316 0.600686 106.011 0.600686C78.033 0.604668 69.9013 6.08757 59.6263 32.7639C54.6598 45.6533 50.2182 58.7824 44.5519 74.6891C36.0742 59.3111 22.5545 54.4335 8.62127 60.8198C-0.631775 65.0568 -1.82867 71.874 6.40642 77.8499C11.2616 81.3741 17.1705 83.7835 22.9442 85.6143C34.0065 89.1231 36.9331 95.7647 36.953 106.224C35.6607 144.652 35.0006 183.108 33.8793 221.537C33.5731 232.016 38.3408 236.277 48.4487 235.66H61.2328C71.3368 236.229 76.2397 231.87 75.8221 221.469C75.508 213.569 75.7628 205.649 75.7628 197.053L274.844 197.004C274.844 205.605 275.091 213.52 274.777 221.42C274.36 231.826 279.267 236.186 289.367 235.616H302.151C312.263 236.232 317.03 231.969 316.724 221.492L314.795 109.012C314.23 96.6403 316.564 89.0032 328.74 85.1413C334.514 83.3089 340.423 80.8999 345.274 77.3768C353.513 71.3966 352.312 64.5822 343.059 60.3472" fill="black"/>
</svg>
