<svg width="512" height="512" viewBox="0 0 512 512" fill="none" xmlns="http://www.w3.org/2000/svg">
<rect width="512" height="512" rx="256" fill="white"/>
<path fill-rule="evenodd" clip-rule="evenodd" d="M353.556 297.367C341.316 297.781 330.906 287.627 330.966 275.34C331.025 263.151 340.036 254.001 352.247 253.726C364.701 253.444 374.11 261.941 374.69 274.005C375.306 286.736 366.073 296.948 353.556 297.367ZM286.51 223.898L283.945 223.808C239.111 224.258 194.278 224.094 147.48 224.094C153.687 207.662 159.17 190.512 166.833 174.406C169.207 169.425 177.477 164.372 183.124 164.281C232.825 163.5 282.553 163.496 332.25 164.285C337.917 164.376 346.203 169.425 348.585 174.417C356.264 190.525 361.759 207.677 369.008 226.838L341.595 225.863C339.261 213.854 327.725 204.722 313.816 204.722C300.678 204.722 289.663 212.877 286.51 223.898V223.898ZM297.365 316.301H218.323C210.203 316.301 206.688 309.922 206.688 302.073C206.688 294.212 210.203 287.842 218.323 287.842H297.365C305.485 287.842 308.992 294.212 308.992 302.073C308.992 309.922 305.485 316.301 297.365 316.301ZM162.542 297.398C150.915 297.403 140.915 287.706 140.569 276.088C140.191 263.486 149.81 253.659 162.494 253.667C174.857 253.679 184.003 262.478 184.297 274.64C184.599 287.297 174.956 297.379 162.542 297.398ZM425.059 201.347C411.078 194.936 397.511 199.865 389.037 215.373C382.877 198.706 377.259 182.763 371.099 167.032C364.363 149.815 352.204 141.187 332.938 141.414C284.633 141.979 236.316 141.601 188.011 141.601C160.033 141.605 151.901 147.088 141.626 173.764C136.66 186.653 132.218 199.782 126.552 215.689C118.074 200.311 104.555 195.433 90.6213 201.82C81.3682 206.057 80.1713 212.874 88.4064 218.85C93.2616 222.374 99.1705 224.784 104.944 226.614C116.006 230.123 118.933 236.765 118.953 247.224C117.661 285.652 117.001 324.108 115.879 362.537C115.573 373.016 120.341 377.277 130.449 376.66H143.233C153.337 377.229 158.24 372.87 157.822 362.469C157.508 354.569 157.763 346.649 157.763 338.053L356.844 338.004C356.844 346.605 357.091 354.52 356.777 362.42C356.36 372.826 361.267 377.186 371.367 376.616H384.151C394.263 377.232 399.03 372.969 398.724 362.492L396.795 250.012C396.23 237.64 398.564 230.003 410.74 226.141C416.514 224.309 422.423 221.9 427.274 218.377C435.513 212.397 434.312 205.582 425.059 201.347" fill="#20A33A"/>
</svg>
