<svg width="105" height="105" viewBox="0 0 105 105" fill="none" xmlns="http://www.w3.org/2000/svg">
<mask id="mask0" mask-type="alpha" maskUnits="userSpaceOnUse" x="0" y="0" width="105" height="105">
<rect width="105" height="105" rx="22" fill="#18792B"/>
</mask>
<g mask="url(#mask0)">
<rect x="-25" y="-29" width="157" height="171" fill="#32AF4B"/>
<path d="M-30.9224 97.5679C-21.5874 73.1936 62.7751 47.3483 118.77 48.1164L146.645 128.302L0.575338 183.071L-30.9224 97.5679Z" fill="#20A33A"/>
<path fill-rule="evenodd" clip-rule="evenodd" d="M72.5069 60.9835C69.9968 61.0683 67.8619 58.9861 67.8742 56.4662C67.8863 53.9667 69.7343 52.0902 72.2386 52.0337C74.7926 51.976 76.722 53.7185 76.8411 56.1925C76.9675 58.8033 75.074 60.8977 72.5069 60.9835ZM58.7572 45.9167L58.2313 45.8983C49.0368 45.9905 39.8424 45.9569 30.2452 45.9569C31.5181 42.587 32.6427 39.07 34.2141 35.7669C34.7009 34.7455 36.3971 33.7093 37.555 33.6905C47.7476 33.5304 57.9458 33.5296 68.1376 33.6913C69.2996 33.7101 70.9991 34.7455 71.4875 35.7692C73.0622 39.0725 74.1892 42.5902 75.6758 46.5196L70.0539 46.3196C69.5753 43.8568 67.2096 41.9841 64.3571 41.9841C61.6628 41.9841 59.4039 43.6565 58.7572 45.9167V45.9167ZM60.9835 64.8664H44.7736C43.1084 64.8664 42.3875 63.5582 42.3875 61.9487C42.3875 60.3366 43.1084 59.0301 44.7736 59.0301H60.9835C62.6487 59.0301 63.3679 60.3366 63.3679 61.9487C63.3679 63.5582 62.6487 64.8664 60.9835 64.8664ZM33.3342 60.9899C30.9497 60.9908 28.8988 59.0023 28.8279 56.6196C28.7504 54.0353 30.723 52.02 33.3244 52.0216C35.8597 52.0241 37.7353 53.8286 37.7956 56.3227C37.8576 58.9185 35.8801 60.986 33.3342 60.9899ZM87.1706 41.292C84.3034 39.9771 81.5211 40.988 79.7833 44.1684C78.5201 40.7503 77.3679 37.4809 76.1047 34.2547C74.7233 30.7239 72.2296 28.9544 68.2787 29.0009C58.3723 29.1168 48.4636 29.0393 38.5573 29.0393C32.8196 29.0401 31.152 30.1645 29.0448 35.6352C28.0263 38.2786 27.1154 40.9711 25.9534 44.2332C24.2148 41.0795 21.4422 40.0792 18.5848 41.3889C16.6872 42.2578 16.4417 43.6559 18.1306 44.8814C19.1263 45.6041 20.338 46.0982 21.5221 46.4737C23.7907 47.1933 24.3909 48.5553 24.395 50.7004C24.13 58.581 23.9946 66.4676 23.7646 74.3485C23.7019 76.4974 24.6796 77.3714 26.7525 77.2448H29.3743C31.4464 77.3615 32.4518 76.4675 32.3662 74.3345C32.3018 72.7144 32.3541 71.0902 32.3541 69.3273L73.1813 69.3173C73.1813 71.0812 73.2319 72.7045 73.1675 74.3245C73.0819 76.4585 74.0882 77.3526 76.1595 77.2358H78.7812C80.855 77.3621 81.8327 76.4878 81.7699 74.3392L81.3743 51.272C81.2585 48.7349 81.7372 47.1687 84.2341 46.3767C85.4182 46.0009 86.63 45.5069 87.6248 44.7844C89.3145 43.558 89.0682 42.1605 87.1706 41.292" fill="white"/>
</g>
</svg>
