<svg width="1010" height="120" viewBox="0 0 1010 120" fill="none" xmlns="http://www.w3.org/2000/svg">
<path d="M2.1 89.338C1.52332 88.9609 1.01591 88.4873 0.6 87.938L0 86.938V52.438L0.6 50.438C1.71163 46.6952 3.79931 43.3156 6.64869 40.6463C9.49808 37.977 13.0065 36.114 16.8138 35.2487C20.6211 34.3834 24.5901 34.547 28.3133 35.7225C32.0365 36.8981 35.3799 39.0433 38 41.938L40.2 43.938L42.7 41.738C45.3 39.238 47.4 37.738 50.2 36.538C60.5 32.138 73.5 36.938 78.3 47.038C80.3 51.038 80.2 50.238 80.3 69.438V86.838L79.7 87.838C78.2 90.638 74 90.638 72.4 87.838L71.8 86.838V70.638C71.8 60.638 71.7 53.938 71.5 53.238C70.7043 50.5391 69.0969 48.1506 66.8963 46.3973C64.6956 44.6439 62.0084 43.6106 59.2 43.438C56.183 43.1527 53.1571 43.8834 50.6027 45.5138C48.0482 47.1443 46.1116 49.5813 45.1 52.438C44.6 53.938 44.6 55.138 44.6 70.238C44.6 87.838 44.6 87.338 43 88.838C41.8 89.938 39.4 90.138 38 89.338C36 88.038 36.2 89.338 36 70.338L35.9 53.338L35.2 51.838C34.1909 49.4294 32.5283 47.3512 30.4 45.838C23.2 41.038 13.2 43.538 9.7 51.038L8.8 52.838L8.7 69.938C8.5 86.838 8.5 87.138 8 87.938C6.6 89.738 4 90.438 2.1 89.338Z" fill="#333333"/>
<path d="M95.4001 105.838C93.6001 105.538 90.0001 104.538 89.1001 104.138C86.5001 102.738 85.9001 99.6379 87.9001 97.7379C89.2001 96.4379 90.2001 96.2379 93.2001 97.0379C96.5001 97.9379 99.9001 97.9379 101.7 97.0379C104 95.9379 106.7 92.5379 107.9 89.2379L108.3 88.0379L97.3001 64.8379C91.3001 52.0379 86.3001 41.2379 86.3001 40.6379C85.8001 38.4379 87.3001 36.2379 89.6001 35.6379C91.6001 35.0379 93.6001 35.9379 94.7001 37.9379L103.9 58.3379L112.5 77.5379C112.5 77.7379 112.8 77.7379 113 77.5379L121 57.7379C125.2 46.9379 129 37.7379 129.3 37.2379C130.3 35.9379 131.1 35.5379 132.7 35.5379C134.3 35.5379 135.5 36.1379 136.3 37.2379C136.8 37.9379 137 38.5379 137 39.8379C137 41.5379 136.6 42.3379 126.6 66.3379C122.85 75.3257 119.05 84.2925 115.2 93.2379C113.1 97.8379 110.2 101.438 107.2 103.438C104.1 105.438 99.2001 106.438 95.4001 105.838Z" fill="#333333"/>
<path d="M163.3 89.6378C159.257 88.9254 155.495 87.0962 152.438 84.3571C149.38 81.618 147.15 78.0781 146 74.1378C145.6 72.7378 145.5 70.6378 145.4 55.6378C145.4 44.0378 145.4 38.3378 145.6 37.6378C146 36.4378 147.7 34.9378 149 34.6378C151 34.2378 152.9 35.2378 153.9 37.0378C154.3 37.8378 154.3 39.4378 154.5 54.8378V71.8378L155.5 73.8378C157.8 78.3378 162.5 81.0378 167.8 81.0378C173.2 81.0378 177.8 78.3378 180 73.8378L181 71.8378L181.2 54.8378C180.743 48.9034 180.91 42.9373 181.7 37.0378C183.2 34.4378 186.4 33.7378 188.5 35.7378C190.3 37.2378 190.2 36.6378 190.2 54.3378C190.2 71.5378 190.2 71.7378 191.6 74.3378C192.833 76.4573 194.62 78.2009 196.77 79.3813C198.919 80.5617 201.35 81.1344 203.8 81.0378C207.5 81.0378 210.6 79.8378 213.4 77.2378C215.4 75.2378 216.6 73.0378 216.9 70.2378C217.1 69.2378 217.2 61.4378 217.2 53.0378C217.2 36.1378 217.2 36.8378 218.9 35.4378C221 33.8378 224.1 34.5378 225.4 36.9378L226 38.1378V54.4378C226 72.0378 226 73.1378 224.6 76.4378C222.6 81.4378 218.6 85.4378 213.4 87.9378C210.4 89.3378 208.3 89.8378 204.9 89.9378C198.6 90.3378 193 88.0378 187.9 83.0378L185.7 80.9378L183.4 83.1378C180.874 85.8049 177.72 87.7969 174.227 88.9323C170.733 90.0677 167.011 90.3102 163.4 89.6378H163.3Z" fill="#333333"/>
<path d="M240 89.4378C239.3 89.0378 238.8 88.4378 238.4 87.6378L237.8 86.5378V17.8378L238.4 16.8378C238.721 16.1534 239.23 15.5741 239.867 15.167C240.504 14.7599 241.244 14.5418 242 14.5378C243.7 14.5378 245 15.1378 245.9 16.5378L246.6 17.5378V28.7378L246.9 39.8378L248.7 38.6378C250.7 37.1378 253.3 35.8378 255.4 35.1378C257.8 34.4378 263 34.5378 266 35.3378C273.7 37.3378 279.6 43.0378 281.8 50.4378C282.4 52.5378 282.4 52.7378 282.4 69.7378V87.0378L281.8 88.0378C281.344 88.6455 280.756 89.1414 280.081 89.4879C279.405 89.8345 278.659 90.0225 277.9 90.0378C276.5 90.0378 274.8 89.0378 274 87.6378L273.4 86.5378V70.3378C273.4 55.1378 273.4 53.9378 272.9 52.4378C269.5 41.5378 252.9 40.4378 247.9 50.7378L246.9 52.7378L246.7 69.7378C247.122 75.6731 246.954 81.6356 246.2 87.5378C244.8 89.9378 242.2 90.7378 239.9 89.5378L240 89.4378Z" fill="#333333"/>
<path d="M315 90.4378C309.281 89.9492 303.878 87.603 299.617 83.7572C295.356 79.9114 292.47 74.7771 291.4 69.1378C290.8 66.0378 290.7 59.8378 291.3 56.7378C292.316 50.1922 295.811 44.2882 301.06 40.2486C306.31 36.209 312.912 34.3432 319.5 35.0378C322.549 35.3744 325.5 36.3175 328.179 37.8116C330.858 39.3057 333.211 41.3206 335.1 43.7378C338.7 48.3378 341.1 55.0378 341.1 60.9378C341.1 63.3378 340.5 64.6378 338.9 65.4378C337.9 66.0378 337.8 66.0378 318.9 66.0378H299.9V67.0378L300.5 69.7378C302.5 76.3378 307.3 80.8378 313.5 82.2378C315 82.5378 316.3 82.6378 318.6 82.5378C323.5 82.3378 327 80.9378 330.9 77.8378C333.3 75.8378 334.5 75.4378 335.9 75.8378C336.407 75.9867 336.879 76.2346 337.29 76.5671C337.7 76.8996 338.041 77.3102 338.292 77.775C338.543 78.2399 338.7 78.7499 338.752 79.2756C338.805 79.8013 338.753 80.3323 338.6 80.8378C338.2 82.2378 333.6 86.0378 330.1 87.8378C325.341 89.9965 320.106 90.892 314.9 90.4378H315ZM331.6 59.2378C332.6 58.8378 331.8 55.2378 330 51.4378C329.168 49.5589 327.958 47.8709 326.447 46.4788C324.935 45.0866 323.154 44.0199 321.213 43.3448C319.272 42.6697 317.213 42.4006 315.164 42.5542C313.114 42.7078 311.118 43.2809 309.3 44.2378C306.307 45.9716 303.85 48.4976 302.2 51.5378C300.5 54.8378 299.5 58.8378 300.3 59.2378C300.8 59.4378 331.1 59.4378 331.6 59.2378Z" fill="#333333"/>
<path d="M373.4 90.2379C366.799 89.4127 360.756 86.1167 356.488 81.0139C352.22 75.9112 350.045 69.3807 350.4 62.7379C350.4 58.0379 350.4 57.4379 351 54.9379C352.2 49.7734 354.951 45.0993 358.883 41.5424C362.815 37.9856 367.741 35.7159 373 35.0379C378.5 34.3379 385 35.8379 389.3 38.8379C396 43.3379 400.3 52.0379 400.3 60.7379C400.3 62.9379 400.3 63.4379 399.7 64.2379C398.5 66.1379 399.5 66.0379 378.4 66.0379C361.9 66.0379 359.4 66.0379 359.4 66.4379C359.1 66.9379 359.7 69.2379 360.5 71.4379C361.9 74.8379 364.5 78.2379 367.5 80.0379C372.2 83.0379 379.4 83.4379 385 81.0379C386.7 80.3379 389.3 78.7379 391.4 77.0379C393.2 75.6379 394.3 75.4379 395.9 76.2379C397.9 77.2379 398.7 79.2379 397.8 81.2379C396.8 83.0379 391.7 86.9379 387.8 88.4379C384 90.0379 377.8 90.8379 373.4 90.3379V90.2379ZM391.3 59.1379C391.6 58.9379 391.6 58.5379 391.1 56.3379C389.6 49.7379 385.9 45.1379 380.7 43.3379C378.1 42.3379 373.2 42.3379 370.7 43.3379C367.22 44.6041 364.263 46.9977 362.3 50.1379C360.4 53.1379 358.7 58.6379 359.5 59.1379C360 59.4379 390.8 59.4379 391.3 59.1379Z" fill="#333333"/>
<path d="M413.2 89.4379C412.728 89.2393 412.29 88.9695 411.9 88.6379C410.4 87.3379 410.5 89.3379 410.5 51.9379C410.5 13.8379 410.4 16.4379 412.1 14.9379C414.4 12.9379 418.2 14.3379 419.1 17.2379C419.2 18.1379 419.3 27.1379 419.3 52.5379L419.2 86.7379L418.5 87.7379C417.937 88.5791 417.113 89.2113 416.155 89.5368C415.197 89.8622 414.158 89.8626 413.2 89.5379V89.4379Z" fill="#333333"/>
<path d="M443.6 89.9378C438.643 89.1177 433.89 87.3523 429.6 84.7378C427.2 83.1378 426.6 82.2378 426.6 80.2378C426.6 79.1378 426.6 78.7378 427.3 77.9378C428.3 76.9378 429.7 76.3378 430.9 76.5378C431.3 76.6378 432.9 77.4378 434.2 78.2378C441.6 82.6378 450 83.8378 455.1 81.2378C458.9 79.2378 460.3 74.2378 457.8 71.3378C456.1 69.3378 453.3 68.0378 446.3 66.0378C436.2 63.0378 432.1 60.5378 429.9 56.0378C429.1 54.3378 429.1 53.8378 428.9 51.1378C428.9 47.6378 429.3 45.6378 430.9 42.9378C432.2 40.8378 433.2 39.8378 435.6 38.2378C441.2 34.5378 449.2 34.1378 458.2 37.0378C461.6 38.2378 464.5 39.6378 465.2 40.5378C466.9 42.7378 466.4 45.5378 464.2 46.7378C462.8 47.3378 461.4 47.2378 459.2 46.0378C455.199 43.815 450.675 42.7096 446.1 42.8378C443.1 43.0378 441 43.8378 439.4 45.3378C437.4 47.1378 436.9 50.1378 438.1 52.3378C439.4 54.4378 441.8 55.7378 450.1 58.3378C458.3 60.9378 461.4 62.4378 464.2 65.3378C469.2 70.5378 468.5 80.3378 462.5 85.6378C460.067 87.5148 457.277 88.8758 454.3 89.6378C451.6 90.3378 446.5 90.4378 443.6 89.9378Z" fill="#333333"/>
<rect x="501" width="509" height="120" rx="20" fill="#333333"/>
<path d="M562.49 82.08C565.35 87.14 571.84 91.43 580.75 91.43C595.38 91.43 605.83 80.1 605.83 63.49C605.83 46.66 595.27 35.77 581.08 35.77C572.83 35.77 566.78 39.4 562.6 45.34V23.78C562.6 16.19 558.97 14.43 555.67 14.43C553.47 14.43 551.71 15.31 551.71 15.64V85.27C551.71 89.23 553.69 90.44 556.55 90.44H557.76C560.51 90.44 562.49 89.23 562.49 85.27V82.08ZM595.27 63.6C595.27 74.82 588.67 82.41 578.77 82.41C570.19 82.41 562.82 76.14 562.49 67.56V55.79C565.24 49.08 570.85 44.79 578.99 44.79C588.45 44.79 595.27 52.6 595.27 63.6Z" fill="white"/>
<path d="M659.506 36.54H658.296C655.546 36.54 653.566 37.86 653.566 41.82V72.51C650.816 78.12 645.646 81.86 639.046 81.86C631.016 81.86 626.396 76.47 626.396 67.34V41.82C626.396 37.75 624.416 36.54 621.556 36.54H620.346C617.596 36.54 615.616 37.86 615.616 41.82V68.66C615.616 81.86 621.996 91.32 635.966 91.32C644.106 91.32 649.826 87.47 653.566 82.08C653.566 83.4 653.786 84.5 654.006 85.49C655.106 89.45 657.856 90.44 660.496 90.44C662.586 90.44 664.346 89.56 664.346 89.23V41.82C664.346 37.75 662.366 36.54 659.506 36.54Z" fill="white"/>
<path d="M678.046 86.7C681.786 89.34 687.836 91.32 696.196 91.32C709.836 91.32 718.196 84.83 718.196 74.71C718.196 63.27 706.866 60.85 698.726 59.09C690.146 57.22 685.526 56.12 685.526 51.28C685.526 46.88 689.486 44.02 696.966 44.02C703.676 44.02 709.176 47.1 712.476 51.5C712.696 51.83 716.876 49.85 716.876 46.44C716.876 45.23 716.436 43.91 715.556 42.7C713.026 38.96 706.646 35.77 696.526 35.77C683.656 35.77 675.406 42.48 675.406 52.38C675.406 63.6 686.186 66.02 693.996 67.67C702.686 69.54 707.636 70.53 707.636 75.92C707.636 80.32 703.456 83.07 695.976 83.07C687.616 83.07 681.676 79.66 678.156 75.15C677.826 74.93 673.866 76.69 673.866 80.1C673.866 82.3 675.296 84.72 678.046 86.7Z" fill="white"/>
<path d="M728.301 20.15C728.301 24 730.721 26.42 734.791 26.42C738.971 26.42 741.281 24.11 741.281 20.15C741.281 16.19 738.971 13.77 734.901 13.77C730.721 13.77 728.301 16.19 728.301 20.15ZM729.181 85.27C729.181 89.23 731.271 90.44 734.131 90.44H735.231C738.091 90.44 740.071 89.23 740.071 85.27V41.82C740.071 37.75 738.091 36.54 735.231 36.54H734.131C731.271 36.54 729.181 37.86 729.181 41.82V85.27Z" fill="white"/>
<path d="M782.473 35.77C774.443 35.77 768.613 39.62 764.873 45.12C764.653 38.08 761.023 36.54 758.053 36.54C755.853 36.54 754.093 37.42 754.093 37.75V85.27C754.093 89.23 756.073 90.44 758.933 90.44H760.143C762.893 90.44 764.983 89.23 764.983 85.27V54.58C767.623 49.08 772.903 45.34 779.833 45.34C787.533 45.34 792.043 50.84 792.043 59.75V85.27C792.043 89.23 794.023 90.44 796.883 90.44H798.093C800.843 90.44 802.933 89.23 802.933 85.27V58.43C802.933 45.34 796.443 35.77 782.473 35.77Z" fill="white"/>
<path d="M812.563 63.82C812.563 80.32 823.783 91.43 840.503 91.43C847.763 91.43 853.373 89.56 857.223 87.14C861.073 84.72 863.053 81.75 863.053 79.44C863.053 74.82 857.553 73.83 857.333 74.05C854.583 78.78 849.963 82.85 840.723 82.85C831.373 82.85 824.443 77.13 822.903 68.44C822.793 67.78 822.683 67.12 822.683 66.46H861.733C864.263 66.46 865.033 65.58 865.033 63.27V62.39C865.033 46.55 854.913 35.77 839.623 35.77C824.003 35.77 812.563 47.76 812.563 63.82ZM854.473 59.09H822.793C824.113 50.29 830.823 44.02 839.513 44.02C848.313 44.02 853.923 49.96 854.473 59.09Z" fill="white"/>
<path d="M875.487 86.7C879.227 89.34 885.277 91.32 893.637 91.32C907.277 91.32 915.637 84.83 915.637 74.71C915.637 63.27 904.307 60.85 896.167 59.09C887.587 57.22 882.967 56.12 882.967 51.28C882.967 46.88 886.927 44.02 894.407 44.02C901.117 44.02 906.617 47.1 909.917 51.5C910.137 51.83 914.317 49.85 914.317 46.44C914.317 45.23 913.877 43.91 912.997 42.7C910.467 38.96 904.087 35.77 893.967 35.77C881.097 35.77 872.847 42.48 872.847 52.38C872.847 63.6 883.627 66.02 891.437 67.67C900.127 69.54 905.077 70.53 905.077 75.92C905.077 80.32 900.897 83.07 893.417 83.07C885.057 83.07 879.117 79.66 875.597 75.15C875.267 74.93 871.307 76.69 871.307 80.1C871.307 82.3 872.737 84.72 875.487 86.7Z" fill="white"/>
<path d="M926.513 86.7C930.253 89.34 936.303 91.32 944.663 91.32C958.303 91.32 966.663 84.83 966.663 74.71C966.663 63.27 955.333 60.85 947.193 59.09C938.613 57.22 933.993 56.12 933.993 51.28C933.993 46.88 937.953 44.02 945.433 44.02C952.143 44.02 957.643 47.1 960.943 51.5C961.163 51.83 965.343 49.85 965.343 46.44C965.343 45.23 964.903 43.91 964.023 42.7C961.493 38.96 955.113 35.77 944.993 35.77C932.123 35.77 923.873 42.48 923.873 52.38C923.873 63.6 934.653 66.02 942.463 67.67C951.153 69.54 956.103 70.53 956.103 75.92C956.103 80.32 951.923 83.07 944.443 83.07C936.083 83.07 930.143 79.66 926.623 75.15C926.293 74.93 922.333 76.69 922.333 80.1C922.333 82.3 923.763 84.72 926.513 86.7Z" fill="white"/>
</svg>
