<svg width="943" height="120" viewBox="0 0 943 120" fill="none" xmlns="http://www.w3.org/2000/svg">
<path d="M2.1 89.338C1.52332 88.9609 1.01591 88.4873 0.6 87.938L0 86.938V52.438L0.6 50.438C1.71163 46.6952 3.79931 43.3156 6.64869 40.6463C9.49808 37.977 13.0065 36.114 16.8138 35.2487C20.6211 34.3834 24.5901 34.547 28.3133 35.7225C32.0365 36.8981 35.3799 39.0433 38 41.938L40.2 43.938L42.7 41.738C45.3 39.238 47.4 37.738 50.2 36.538C60.5 32.138 73.5 36.938 78.3 47.038C80.3 51.038 80.2 50.238 80.3 69.438V86.838L79.7 87.838C78.2 90.638 74 90.638 72.4 87.838L71.8 86.838V70.638C71.8 60.638 71.7 53.938 71.5 53.238C70.7043 50.5391 69.0969 48.1506 66.8963 46.3973C64.6956 44.6439 62.0084 43.6106 59.2 43.438C56.183 43.1527 53.1571 43.8834 50.6027 45.5138C48.0482 47.1443 46.1116 49.5813 45.1 52.438C44.6 53.938 44.6 55.138 44.6 70.238C44.6 87.838 44.6 87.338 43 88.838C41.8 89.938 39.4 90.138 38 89.338C36 88.038 36.2 89.338 36 70.338L35.9 53.338L35.2 51.838C34.1909 49.4294 32.5283 47.3512 30.4 45.838C23.2 41.038 13.2 43.538 9.7 51.038L8.8 52.838L8.7 69.938C8.5 86.838 8.5 87.138 8 87.938C6.6 89.738 4 90.438 2.1 89.338Z" fill="white"/>
<path d="M95.4001 105.838C93.6001 105.538 90.0001 104.538 89.1001 104.138C86.5001 102.738 85.9001 99.6379 87.9001 97.7379C89.2001 96.4379 90.2001 96.2379 93.2001 97.0379C96.5001 97.9379 99.9001 97.9379 101.7 97.0379C104 95.9379 106.7 92.5379 107.9 89.2379L108.3 88.0379L97.3001 64.8379C91.3001 52.0379 86.3001 41.2379 86.3001 40.6379C85.8001 38.4379 87.3001 36.2379 89.6001 35.6379C91.6001 35.0379 93.6001 35.9379 94.7001 37.9379L103.9 58.3379L112.5 77.5379C112.5 77.7379 112.8 77.7379 113 77.5379L121 57.7379C125.2 46.9379 129 37.7379 129.3 37.2379C130.3 35.9379 131.1 35.5379 132.7 35.5379C134.3 35.5379 135.5 36.1379 136.3 37.2379C136.8 37.9379 137 38.5379 137 39.8379C137 41.5379 136.6 42.3379 126.6 66.3379C122.85 75.3257 119.05 84.2925 115.2 93.2379C113.1 97.8379 110.2 101.438 107.2 103.438C104.1 105.438 99.2001 106.438 95.4001 105.838Z" fill="white"/>
<path d="M163.3 89.6378C159.257 88.9254 155.495 87.0962 152.438 84.3571C149.38 81.618 147.15 78.0781 146 74.1378C145.6 72.7378 145.5 70.6378 145.4 55.6378C145.4 44.0378 145.4 38.3378 145.6 37.6378C146 36.4378 147.7 34.9378 149 34.6378C151 34.2378 152.9 35.2378 153.9 37.0378C154.3 37.8378 154.3 39.4378 154.5 54.8378V71.8378L155.5 73.8378C157.8 78.3378 162.5 81.0378 167.8 81.0378C173.2 81.0378 177.8 78.3378 180 73.8378L181 71.8378L181.2 54.8378C180.743 48.9034 180.91 42.9373 181.7 37.0378C183.2 34.4378 186.4 33.7378 188.5 35.7378C190.3 37.2378 190.2 36.6378 190.2 54.3378C190.2 71.5378 190.2 71.7378 191.6 74.3378C192.833 76.4573 194.62 78.2009 196.77 79.3813C198.919 80.5617 201.35 81.1344 203.8 81.0378C207.5 81.0378 210.6 79.8378 213.4 77.2378C215.4 75.2378 216.6 73.0378 216.9 70.2378C217.1 69.2378 217.2 61.4378 217.2 53.0378C217.2 36.1378 217.2 36.8378 218.9 35.4378C221 33.8378 224.1 34.5378 225.4 36.9378L226 38.1378V54.4378C226 72.0378 226 73.1378 224.6 76.4378C222.6 81.4378 218.6 85.4378 213.4 87.9378C210.4 89.3378 208.3 89.8378 204.9 89.9378C198.6 90.3378 193 88.0378 187.9 83.0378L185.7 80.9378L183.4 83.1378C180.874 85.8049 177.72 87.7969 174.227 88.9323C170.733 90.0677 167.011 90.3102 163.4 89.6378H163.3Z" fill="white"/>
<path d="M240 89.4378C239.3 89.0378 238.8 88.4378 238.4 87.6378L237.8 86.5378V17.8378L238.4 16.8378C238.721 16.1534 239.23 15.5741 239.867 15.167C240.504 14.7599 241.244 14.5418 242 14.5378C243.7 14.5378 245 15.1378 245.9 16.5378L246.6 17.5378V28.7378L246.9 39.8378L248.7 38.6378C250.7 37.1378 253.3 35.8378 255.4 35.1378C257.8 34.4378 263 34.5378 266 35.3378C273.7 37.3378 279.6 43.0378 281.8 50.4378C282.4 52.5378 282.4 52.7378 282.4 69.7378V87.0378L281.8 88.0378C281.344 88.6455 280.756 89.1414 280.081 89.4879C279.405 89.8345 278.659 90.0225 277.9 90.0378C276.5 90.0378 274.8 89.0378 274 87.6378L273.4 86.5378V70.3378C273.4 55.1378 273.4 53.9378 272.9 52.4378C269.5 41.5378 252.9 40.4378 247.9 50.7378L246.9 52.7378L246.7 69.7378C247.122 75.6731 246.954 81.6356 246.2 87.5378C244.8 89.9378 242.2 90.7378 239.9 89.5378L240 89.4378Z" fill="white"/>
<path d="M315 90.4378C309.281 89.9492 303.878 87.603 299.617 83.7572C295.356 79.9114 292.47 74.7771 291.4 69.1378C290.8 66.0378 290.7 59.8378 291.3 56.7378C292.316 50.1922 295.811 44.2882 301.06 40.2486C306.31 36.209 312.912 34.3432 319.5 35.0378C322.549 35.3744 325.5 36.3175 328.179 37.8116C330.858 39.3057 333.211 41.3206 335.1 43.7378C338.7 48.3378 341.1 55.0378 341.1 60.9378C341.1 63.3378 340.5 64.6378 338.9 65.4378C337.9 66.0378 337.8 66.0378 318.9 66.0378H299.9V67.0378L300.5 69.7378C302.5 76.3378 307.3 80.8378 313.5 82.2378C315 82.5378 316.3 82.6378 318.6 82.5378C323.5 82.3378 327 80.9378 330.9 77.8378C333.3 75.8378 334.5 75.4378 335.9 75.8378C336.407 75.9867 336.879 76.2346 337.29 76.5671C337.7 76.8996 338.041 77.3102 338.292 77.775C338.543 78.2399 338.7 78.7499 338.752 79.2756C338.805 79.8013 338.753 80.3323 338.6 80.8378C338.2 82.2378 333.6 86.0378 330.1 87.8378C325.341 89.9965 320.106 90.892 314.9 90.4378H315ZM331.6 59.2378C332.6 58.8378 331.8 55.2378 330 51.4378C329.168 49.5589 327.958 47.8709 326.447 46.4788C324.935 45.0866 323.154 44.0199 321.213 43.3448C319.272 42.6697 317.213 42.4006 315.164 42.5542C313.114 42.7078 311.118 43.2809 309.3 44.2378C306.307 45.9716 303.85 48.4976 302.2 51.5378C300.5 54.8378 299.5 58.8378 300.3 59.2378C300.8 59.4378 331.1 59.4378 331.6 59.2378Z" fill="white"/>
<path d="M373.4 90.2379C366.799 89.4127 360.756 86.1167 356.488 81.0139C352.22 75.9112 350.045 69.3807 350.4 62.7379C350.4 58.0379 350.4 57.4379 351 54.9379C352.2 49.7734 354.951 45.0993 358.883 41.5424C362.815 37.9856 367.741 35.7159 373 35.0379C378.5 34.3379 385 35.8379 389.3 38.8379C396 43.3379 400.3 52.0379 400.3 60.7379C400.3 62.9379 400.3 63.4379 399.7 64.2379C398.5 66.1379 399.5 66.0379 378.4 66.0379C361.9 66.0379 359.4 66.0379 359.4 66.4379C359.1 66.9379 359.7 69.2379 360.5 71.4379C361.9 74.8379 364.5 78.2379 367.5 80.0379C372.2 83.0379 379.4 83.4379 385 81.0379C386.7 80.3379 389.3 78.7379 391.4 77.0379C393.2 75.6379 394.3 75.4379 395.9 76.2379C397.9 77.2379 398.7 79.2379 397.8 81.2379C396.8 83.0379 391.7 86.9379 387.8 88.4379C384 90.0379 377.8 90.8379 373.4 90.3379V90.2379ZM391.3 59.1379C391.6 58.9379 391.6 58.5379 391.1 56.3379C389.6 49.7379 385.9 45.1379 380.7 43.3379C378.1 42.3379 373.2 42.3379 370.7 43.3379C367.22 44.6041 364.263 46.9977 362.3 50.1379C360.4 53.1379 358.7 58.6379 359.5 59.1379C360 59.4379 390.8 59.4379 391.3 59.1379Z" fill="white"/>
<path d="M413.2 89.4379C412.728 89.2393 412.29 88.9695 411.9 88.6379C410.4 87.3379 410.5 89.3379 410.5 51.9379C410.5 13.8379 410.4 16.4379 412.1 14.9379C414.4 12.9379 418.2 14.3379 419.1 17.2379C419.2 18.1379 419.3 27.1379 419.3 52.5379L419.2 86.7379L418.5 87.7379C417.937 88.5791 417.113 89.2113 416.155 89.5368C415.197 89.8622 414.158 89.8626 413.2 89.5379V89.4379Z" fill="white"/>
<path d="M443.6 89.9378C438.643 89.1177 433.89 87.3523 429.6 84.7378C427.2 83.1378 426.6 82.2378 426.6 80.2378C426.6 79.1378 426.6 78.7378 427.3 77.9378C428.3 76.9378 429.7 76.3378 430.9 76.5378C431.3 76.6378 432.9 77.4378 434.2 78.2378C441.6 82.6378 450 83.8378 455.1 81.2378C458.9 79.2378 460.3 74.2378 457.8 71.3378C456.1 69.3378 453.3 68.0378 446.3 66.0378C436.2 63.0378 432.1 60.5378 429.9 56.0378C429.1 54.3378 429.1 53.8378 428.9 51.1378C428.9 47.6378 429.3 45.6378 430.9 42.9378C432.2 40.8378 433.2 39.8378 435.6 38.2378C441.2 34.5378 449.2 34.1378 458.2 37.0378C461.6 38.2378 464.5 39.6378 465.2 40.5378C466.9 42.7378 466.4 45.5378 464.2 46.7378C462.8 47.3378 461.4 47.2378 459.2 46.0378C455.199 43.815 450.675 42.7096 446.1 42.8378C443.1 43.0378 441 43.8378 439.4 45.3378C437.4 47.1378 436.9 50.1378 438.1 52.3378C439.4 54.4378 441.8 55.7378 450.1 58.3378C458.3 60.9378 461.4 62.4378 464.2 65.3378C469.2 70.5378 468.5 80.3378 462.5 85.6378C460.067 87.5148 457.277 88.8758 454.3 89.6378C451.6 90.3378 446.5 90.4378 443.6 89.9378Z" fill="white"/>
<rect x="501" width="442" height="120" rx="20" fill="#333333"/>
<path d="M552 86.05C552 88.25 553.21 90.23 556.51 90.23H592.92C596.22 90.23 597.65 88.91 597.65 86.16V85.5C597.65 82.75 596.22 81.43 592.92 81.43H565.53L593.8 47.77C596 45.24 596.77 44.14 596.77 42.05V41.39C596.77 39.19 595.67 37.32 592.26 37.32H556.95C553.65 37.32 552.22 38.64 552.22 41.28V42.05C552.22 44.8 553.65 46.01 556.95 46.01H582.8L555.08 79.23C552.88 81.76 552 82.86 552 85.17V86.05Z" fill="white"/>
<path d="M604.846 76.37C604.846 85.39 611.556 91.44 622.886 91.44C630.916 91.44 637.846 88.03 641.916 82.31C641.916 83.74 642.136 84.95 642.356 85.94C643.236 89.46 645.656 90.78 648.626 90.78C650.606 90.78 652.586 90.12 652.586 89.57V57.12C652.586 43.7 644.446 36 629.486 36C620.466 36 614.086 38.75 610.456 42.05C608.036 44.25 606.826 46.67 606.826 48.65C606.826 53.93 613.536 54.04 613.536 53.93C615.956 49.09 620.686 44.91 628.716 44.91C637.186 44.91 641.806 49.31 641.806 57.34V58.44H640.376C616.506 58.88 604.846 64.16 604.846 76.37ZM641.806 69.33C641.806 77.69 634.986 83.63 625.526 83.63C619.256 83.63 615.516 80.66 615.516 75.93C615.516 68.78 623.436 65.92 638.836 65.37L641.806 65.26V69.33Z" fill="white"/>
<path d="M665.505 85.5C665.505 89.46 667.485 90.67 670.345 90.67H671.555C674.305 90.67 676.395 89.46 676.395 85.5V64.38L697.405 87.04C699.715 89.9 701.805 90.78 703.895 90.78C707.745 90.78 710.165 86.93 709.835 86.38L687.615 62.29L706.865 41.06C707.305 40.51 705.105 36.77 701.255 36.77C699.275 36.77 696.965 37.76 694.765 40.51L676.395 61.08V24.01C676.395 16.42 672.765 14.66 669.465 14.66C667.265 14.66 665.505 15.54 665.505 15.87V85.5Z" fill="white"/>
<path d="M714.414 64.05C714.414 80.55 725.634 91.66 742.354 91.66C749.614 91.66 755.224 89.79 759.074 87.37C762.924 84.95 764.904 81.98 764.904 79.67C764.904 75.05 759.404 74.06 759.184 74.28C756.434 79.01 751.814 83.08 742.574 83.08C733.224 83.08 726.294 77.36 724.754 68.67C724.644 68.01 724.534 67.35 724.534 66.69H763.584C766.114 66.69 766.884 65.81 766.884 63.5V62.62C766.884 46.78 756.764 36 741.474 36C725.854 36 714.414 47.99 714.414 64.05ZM756.324 59.32H724.644C725.964 50.52 732.674 44.25 741.364 44.25C750.164 44.25 755.774 50.19 756.324 59.32Z" fill="white"/>
<path d="M782.398 90.67H783.498C786.358 90.67 788.338 89.46 788.338 85.5V24.01C788.338 16.42 784.818 14.66 781.408 14.66C779.318 14.66 777.448 15.54 777.448 15.87V85.5C777.448 89.46 779.538 90.67 782.398 90.67Z" fill="white"/>
<path d="M801.92 20.38C801.92 24.23 804.34 26.65 808.41 26.65C812.59 26.65 814.9 24.34 814.9 20.38C814.9 16.42 812.59 14 808.52 14C804.34 14 801.92 16.42 801.92 20.38ZM802.8 85.5C802.8 89.46 804.89 90.67 807.75 90.67H808.85C811.71 90.67 813.69 89.46 813.69 85.5V42.05C813.69 37.98 811.71 36.77 808.85 36.77H807.75C804.89 36.77 802.8 38.09 802.8 42.05V85.5Z" fill="white"/>
<path d="M827.272 20.38C827.272 24.23 829.692 26.65 833.762 26.65C837.942 26.65 840.252 24.34 840.252 20.38C840.252 16.42 837.942 14 833.872 14C829.692 14 827.272 16.42 827.272 20.38ZM813.632 109.15C815.502 111.02 818.802 112.23 823.202 112.23C833.542 112.23 839.042 106.18 839.042 95.4V42.05C839.042 37.98 837.062 36.77 834.202 36.77H833.102C830.242 36.77 828.152 38.09 828.152 42.05V94.74C828.152 100.68 826.282 103.21 821.552 103.21C818.472 103.21 816.052 101.67 814.512 100.13C814.292 99.91 811.982 102.22 811.982 105.19C811.982 106.73 812.532 108.05 813.632 109.15Z" fill="white"/>
<path d="M853.063 85.5C853.063 89.46 855.043 90.67 857.903 90.67H859.113C861.863 90.67 863.953 89.46 863.953 85.5V64.38L884.963 87.04C887.273 89.9 889.363 90.78 891.453 90.78C895.303 90.78 897.723 86.93 897.393 86.38L875.173 62.29L894.423 41.06C894.863 40.51 892.663 36.77 888.813 36.77C886.833 36.77 884.523 37.76 882.323 40.51L863.953 61.08V24.01C863.953 16.42 860.323 14.66 857.023 14.66C854.823 14.66 853.063 15.54 853.063 15.87V85.5Z" fill="white"/>
</svg>
