<svg width="943" height="120" viewBox="0 0 943 120" fill="none" xmlns="http://www.w3.org/2000/svg">
<path d="M2.1 89.338C1.52332 88.9609 1.01591 88.4873 0.6 87.938L0 86.938V52.438L0.6 50.438C1.71163 46.6952 3.79931 43.3156 6.64869 40.6463C9.49808 37.977 13.0065 36.114 16.8138 35.2487C20.6211 34.3834 24.5901 34.547 28.3133 35.7225C32.0365 36.8981 35.3799 39.0433 38 41.938L40.2 43.938L42.7 41.738C45.3 39.238 47.4 37.738 50.2 36.538C60.5 32.138 73.5 36.938 78.3 47.038C80.3 51.038 80.2 50.238 80.3 69.438V86.838L79.7 87.838C78.2 90.638 74 90.638 72.4 87.838L71.8 86.838V70.638C71.8 60.638 71.7 53.938 71.5 53.238C70.7043 50.5391 69.0969 48.1506 66.8963 46.3973C64.6956 44.6439 62.0084 43.6106 59.2 43.438C56.183 43.1527 53.1571 43.8834 50.6027 45.5138C48.0482 47.1443 46.1116 49.5813 45.1 52.438C44.6 53.938 44.6 55.138 44.6 70.238C44.6 87.838 44.6 87.338 43 88.838C41.8 89.938 39.4 90.138 38 89.338C36 88.038 36.2 89.338 36 70.338L35.9 53.338L35.2 51.838C34.1909 49.4294 32.5283 47.3512 30.4 45.838C23.2 41.038 13.2 43.538 9.7 51.038L8.8 52.838L8.7 69.938C8.5 86.838 8.5 87.138 8 87.938C6.6 89.738 4 90.438 2.1 89.338Z" fill="#333333"/>
<path d="M95.4001 105.838C93.6001 105.538 90.0001 104.538 89.1001 104.138C86.5001 102.738 85.9001 99.6379 87.9001 97.7379C89.2001 96.4379 90.2001 96.2379 93.2001 97.0379C96.5001 97.9379 99.9001 97.9379 101.7 97.0379C104 95.9379 106.7 92.5379 107.9 89.2379L108.3 88.0379L97.3001 64.8379C91.3001 52.0379 86.3001 41.2379 86.3001 40.6379C85.8001 38.4379 87.3001 36.2379 89.6001 35.6379C91.6001 35.0379 93.6001 35.9379 94.7001 37.9379L103.9 58.3379L112.5 77.5379C112.5 77.7379 112.8 77.7379 113 77.5379L121 57.7379C125.2 46.9379 129 37.7379 129.3 37.2379C130.3 35.9379 131.1 35.5379 132.7 35.5379C134.3 35.5379 135.5 36.1379 136.3 37.2379C136.8 37.9379 137 38.5379 137 39.8379C137 41.5379 136.6 42.3379 126.6 66.3379C122.85 75.3257 119.05 84.2925 115.2 93.2379C113.1 97.8379 110.2 101.438 107.2 103.438C104.1 105.438 99.2001 106.438 95.4001 105.838Z" fill="#333333"/>
<path d="M163.3 89.6378C159.257 88.9254 155.495 87.0962 152.438 84.3571C149.38 81.618 147.15 78.0781 146 74.1378C145.6 72.7378 145.5 70.6378 145.4 55.6378C145.4 44.0378 145.4 38.3378 145.6 37.6378C146 36.4378 147.7 34.9378 149 34.6378C151 34.2378 152.9 35.2378 153.9 37.0378C154.3 37.8378 154.3 39.4378 154.5 54.8378V71.8378L155.5 73.8378C157.8 78.3378 162.5 81.0378 167.8 81.0378C173.2 81.0378 177.8 78.3378 180 73.8378L181 71.8378L181.2 54.8378C180.743 48.9034 180.91 42.9373 181.7 37.0378C183.2 34.4378 186.4 33.7378 188.5 35.7378C190.3 37.2378 190.2 36.6378 190.2 54.3378C190.2 71.5378 190.2 71.7378 191.6 74.3378C192.833 76.4573 194.62 78.2009 196.77 79.3813C198.919 80.5617 201.35 81.1344 203.8 81.0378C207.5 81.0378 210.6 79.8378 213.4 77.2378C215.4 75.2378 216.6 73.0378 216.9 70.2378C217.1 69.2378 217.2 61.4378 217.2 53.0378C217.2 36.1378 217.2 36.8378 218.9 35.4378C221 33.8378 224.1 34.5378 225.4 36.9378L226 38.1378V54.4378C226 72.0378 226 73.1378 224.6 76.4378C222.6 81.4378 218.6 85.4378 213.4 87.9378C210.4 89.3378 208.3 89.8378 204.9 89.9378C198.6 90.3378 193 88.0378 187.9 83.0378L185.7 80.9378L183.4 83.1378C180.874 85.8049 177.72 87.7969 174.227 88.9323C170.733 90.0677 167.011 90.3102 163.4 89.6378H163.3Z" fill="#333333"/>
<path d="M240 89.4378C239.3 89.0378 238.8 88.4378 238.4 87.6378L237.8 86.5378V17.8378L238.4 16.8378C238.721 16.1534 239.23 15.5741 239.867 15.167C240.504 14.7599 241.244 14.5418 242 14.5378C243.7 14.5378 245 15.1378 245.9 16.5378L246.6 17.5378V28.7378L246.9 39.8378L248.7 38.6378C250.7 37.1378 253.3 35.8378 255.4 35.1378C257.8 34.4378 263 34.5378 266 35.3378C273.7 37.3378 279.6 43.0378 281.8 50.4378C282.4 52.5378 282.4 52.7378 282.4 69.7378V87.0378L281.8 88.0378C281.344 88.6455 280.756 89.1414 280.081 89.4879C279.405 89.8345 278.659 90.0225 277.9 90.0378C276.5 90.0378 274.8 89.0378 274 87.6378L273.4 86.5378V70.3378C273.4 55.1378 273.4 53.9378 272.9 52.4378C269.5 41.5378 252.9 40.4378 247.9 50.7378L246.9 52.7378L246.7 69.7378C247.122 75.6731 246.954 81.6356 246.2 87.5378C244.8 89.9378 242.2 90.7378 239.9 89.5378L240 89.4378Z" fill="#333333"/>
<path d="M315 90.4378C309.281 89.9492 303.878 87.603 299.617 83.7572C295.356 79.9114 292.47 74.7771 291.4 69.1378C290.8 66.0378 290.7 59.8378 291.3 56.7378C292.316 50.1922 295.811 44.2882 301.06 40.2486C306.31 36.209 312.912 34.3432 319.5 35.0378C322.549 35.3744 325.5 36.3175 328.179 37.8116C330.858 39.3057 333.211 41.3206 335.1 43.7378C338.7 48.3378 341.1 55.0378 341.1 60.9378C341.1 63.3378 340.5 64.6378 338.9 65.4378C337.9 66.0378 337.8 66.0378 318.9 66.0378H299.9V67.0378L300.5 69.7378C302.5 76.3378 307.3 80.8378 313.5 82.2378C315 82.5378 316.3 82.6378 318.6 82.5378C323.5 82.3378 327 80.9378 330.9 77.8378C333.3 75.8378 334.5 75.4378 335.9 75.8378C336.407 75.9867 336.879 76.2346 337.29 76.5671C337.7 76.8996 338.041 77.3102 338.292 77.775C338.543 78.2399 338.7 78.7499 338.752 79.2756C338.805 79.8013 338.753 80.3323 338.6 80.8378C338.2 82.2378 333.6 86.0378 330.1 87.8378C325.341 89.9965 320.106 90.892 314.9 90.4378H315ZM331.6 59.2378C332.6 58.8378 331.8 55.2378 330 51.4378C329.168 49.5589 327.958 47.8709 326.447 46.4788C324.935 45.0866 323.154 44.0199 321.213 43.3448C319.272 42.6697 317.213 42.4006 315.164 42.5542C313.114 42.7078 311.118 43.2809 309.3 44.2378C306.307 45.9716 303.85 48.4976 302.2 51.5378C300.5 54.8378 299.5 58.8378 300.3 59.2378C300.8 59.4378 331.1 59.4378 331.6 59.2378Z" fill="#333333"/>
<path d="M373.4 90.2379C366.799 89.4127 360.756 86.1167 356.488 81.0139C352.22 75.9112 350.045 69.3807 350.4 62.7379C350.4 58.0379 350.4 57.4379 351 54.9379C352.2 49.7734 354.951 45.0993 358.883 41.5424C362.815 37.9856 367.741 35.7159 373 35.0379C378.5 34.3379 385 35.8379 389.3 38.8379C396 43.3379 400.3 52.0379 400.3 60.7379C400.3 62.9379 400.3 63.4379 399.7 64.2379C398.5 66.1379 399.5 66.0379 378.4 66.0379C361.9 66.0379 359.4 66.0379 359.4 66.4379C359.1 66.9379 359.7 69.2379 360.5 71.4379C361.9 74.8379 364.5 78.2379 367.5 80.0379C372.2 83.0379 379.4 83.4379 385 81.0379C386.7 80.3379 389.3 78.7379 391.4 77.0379C393.2 75.6379 394.3 75.4379 395.9 76.2379C397.9 77.2379 398.7 79.2379 397.8 81.2379C396.8 83.0379 391.7 86.9379 387.8 88.4379C384 90.0379 377.8 90.8379 373.4 90.3379V90.2379ZM391.3 59.1379C391.6 58.9379 391.6 58.5379 391.1 56.3379C389.6 49.7379 385.9 45.1379 380.7 43.3379C378.1 42.3379 373.2 42.3379 370.7 43.3379C367.22 44.6041 364.263 46.9977 362.3 50.1379C360.4 53.1379 358.7 58.6379 359.5 59.1379C360 59.4379 390.8 59.4379 391.3 59.1379Z" fill="#333333"/>
<path d="M413.2 89.4379C412.728 89.2393 412.29 88.9695 411.9 88.6379C410.4 87.3379 410.5 89.3379 410.5 51.9379C410.5 13.8379 410.4 16.4379 412.1 14.9379C414.4 12.9379 418.2 14.3379 419.1 17.2379C419.2 18.1379 419.3 27.1379 419.3 52.5379L419.2 86.7379L418.5 87.7379C417.937 88.5791 417.113 89.2113 416.155 89.5368C415.197 89.8622 414.158 89.8626 413.2 89.5379V89.4379Z" fill="#333333"/>
<path d="M443.6 89.9378C438.643 89.1177 433.89 87.3523 429.6 84.7378C427.2 83.1378 426.6 82.2378 426.6 80.2378C426.6 79.1378 426.6 78.7378 427.3 77.9378C428.3 76.9378 429.7 76.3378 430.9 76.5378C431.3 76.6378 432.9 77.4378 434.2 78.2378C441.6 82.6378 450 83.8378 455.1 81.2378C458.9 79.2378 460.3 74.2378 457.8 71.3378C456.1 69.3378 453.3 68.0378 446.3 66.0378C436.2 63.0378 432.1 60.5378 429.9 56.0378C429.1 54.3378 429.1 53.8378 428.9 51.1378C428.9 47.6378 429.3 45.6378 430.9 42.9378C432.2 40.8378 433.2 39.8378 435.6 38.2378C441.2 34.5378 449.2 34.1378 458.2 37.0378C461.6 38.2378 464.5 39.6378 465.2 40.5378C466.9 42.7378 466.4 45.5378 464.2 46.7378C462.8 47.3378 461.4 47.2378 459.2 46.0378C455.199 43.815 450.675 42.7096 446.1 42.8378C443.1 43.0378 441 43.8378 439.4 45.3378C437.4 47.1378 436.9 50.1378 438.1 52.3378C439.4 54.4378 441.8 55.7378 450.1 58.3378C458.3 60.9378 461.4 62.4378 464.2 65.3378C469.2 70.5378 468.5 80.3378 462.5 85.6378C460.067 87.5148 457.277 88.8758 454.3 89.6378C451.6 90.3378 446.5 90.4378 443.6 89.9378Z" fill="#333333"/>
<rect x="501" width="442" height="120" rx="20" fill="#333333"/>
<path d="M548.85 85.82C548.85 88.02 550.06 90 553.36 90H589.77C593.07 90 594.5 88.68 594.5 85.93V85.27C594.5 82.52 593.07 81.2 589.77 81.2H562.38L590.65 47.54C592.85 45.01 593.62 43.91 593.62 41.82V41.16C593.62 38.96 592.52 37.09 589.11 37.09H553.8C550.5 37.09 549.07 38.41 549.07 41.05V41.82C549.07 44.57 550.5 45.78 553.8 45.78H579.65L551.93 79C549.73 81.53 548.85 82.63 548.85 84.94V85.82Z" fill="white"/>
<path d="M601.697 76.14C601.697 85.16 608.407 91.21 619.737 91.21C627.767 91.21 634.697 87.8 638.767 82.08C638.767 83.51 638.987 84.72 639.207 85.71C640.087 89.23 642.507 90.55 645.477 90.55C647.457 90.55 649.437 89.89 649.437 89.34V56.89C649.437 43.47 641.297 35.77 626.337 35.77C617.317 35.77 610.937 38.52 607.307 41.82C604.887 44.02 603.677 46.44 603.677 48.42C603.677 53.7 610.387 53.81 610.387 53.7C612.807 48.86 617.537 44.68 625.567 44.68C634.037 44.68 638.657 49.08 638.657 57.11V58.21H637.227C613.357 58.65 601.697 63.93 601.697 76.14ZM638.657 69.1C638.657 77.46 631.837 83.4 622.377 83.4C616.107 83.4 612.367 80.43 612.367 75.7C612.367 68.55 620.287 65.69 635.687 65.14L638.657 65.03V69.1Z" fill="white"/>
<path d="M662.355 85.27C662.355 89.23 664.335 90.44 667.195 90.44H668.405C671.155 90.44 673.245 89.23 673.245 85.27V64.15L694.255 86.81C696.565 89.67 698.655 90.55 700.745 90.55C704.595 90.55 707.015 86.7 706.685 86.15L684.465 62.06L703.715 40.83C704.155 40.28 701.955 36.54 698.105 36.54C696.125 36.54 693.815 37.53 691.615 40.28L673.245 60.85V23.78C673.245 16.19 669.615 14.43 666.315 14.43C664.115 14.43 662.355 15.31 662.355 15.64V85.27Z" fill="white"/>
<path d="M711.264 63.82C711.264 80.32 722.484 91.43 739.204 91.43C746.464 91.43 752.074 89.56 755.924 87.14C759.774 84.72 761.754 81.75 761.754 79.44C761.754 74.82 756.254 73.83 756.034 74.05C753.284 78.78 748.664 82.85 739.424 82.85C730.074 82.85 723.144 77.13 721.604 68.44C721.494 67.78 721.384 67.12 721.384 66.46H760.434C762.964 66.46 763.734 65.58 763.734 63.27V62.39C763.734 46.55 753.614 35.77 738.324 35.77C722.704 35.77 711.264 47.76 711.264 63.82ZM753.174 59.09H721.494C722.814 50.29 729.524 44.02 738.214 44.02C747.014 44.02 752.624 49.96 753.174 59.09Z" fill="white"/>
<path d="M779.249 90.44H780.349C783.209 90.44 785.189 89.23 785.189 85.27V23.78C785.189 16.19 781.669 14.43 778.259 14.43C776.169 14.43 774.299 15.31 774.299 15.64V85.27C774.299 89.23 776.389 90.44 779.249 90.44Z" fill="white"/>
<path d="M798.77 20.15C798.77 24 801.19 26.42 805.26 26.42C809.44 26.42 811.75 24.11 811.75 20.15C811.75 16.19 809.44 13.77 805.37 13.77C801.19 13.77 798.77 16.19 798.77 20.15ZM799.65 85.27C799.65 89.23 801.74 90.44 804.6 90.44H805.7C808.56 90.44 810.54 89.23 810.54 85.27V41.82C810.54 37.75 808.56 36.54 805.7 36.54H804.6C801.74 36.54 799.65 37.86 799.65 41.82V85.27Z" fill="white"/>
<path d="M824.122 20.15C824.122 24 826.542 26.42 830.612 26.42C834.792 26.42 837.102 24.11 837.102 20.15C837.102 16.19 834.792 13.77 830.722 13.77C826.542 13.77 824.122 16.19 824.122 20.15ZM810.482 108.92C812.352 110.79 815.652 112 820.052 112C830.392 112 835.892 105.95 835.892 95.17V41.82C835.892 37.75 833.912 36.54 831.052 36.54H829.952C827.092 36.54 825.002 37.86 825.002 41.82V94.51C825.002 100.45 823.132 102.98 818.402 102.98C815.322 102.98 812.902 101.44 811.362 99.9C811.142 99.68 808.832 101.99 808.832 104.96C808.832 106.5 809.382 107.82 810.482 108.92Z" fill="white"/>
<path d="M849.913 85.27C849.913 89.23 851.893 90.44 854.753 90.44H855.963C858.713 90.44 860.803 89.23 860.803 85.27V64.15L881.813 86.81C884.123 89.67 886.213 90.55 888.303 90.55C892.153 90.55 894.573 86.7 894.243 86.15L872.023 62.06L891.273 40.83C891.713 40.28 889.513 36.54 885.663 36.54C883.683 36.54 881.373 37.53 879.173 40.28L860.803 60.85V23.78C860.803 16.19 857.173 14.43 853.873 14.43C851.673 14.43 849.913 15.31 849.913 15.64V85.27Z" fill="white"/>
</svg>
